<?xml version="1.0" encoding="UTF-8" standalone="no"?>
<svg
   height="24px"
   viewBox="0 -960 960 960"
   width="24px"
   fill="#e3e3e3"
   version="1.1"
   id="svg185"
   sodipodi:docname="tv_icon.svg"
   inkscape:version="1.2.2 (732a01da63, 2022-12-09)"
   xmlns:inkscape="http://www.inkscape.org/namespaces/inkscape"
   xmlns:sodipodi="http://sodipodi.sourceforge.net/DTD/sodipodi-0.dtd"
   xmlns="http://www.w3.org/2000/svg"
   xmlns:svg="http://www.w3.org/2000/svg">
  <defs
     id="defs189" />
  <sodipodi:namedview
     id="namedview187"
     pagecolor="#505050"
     bordercolor="#ffffff"
     borderopacity="1"
     inkscape:showpageshadow="0"
     inkscape:pageopacity="0"
     inkscape:pagecheckerboard="1"
     inkscape:deskcolor="#505050"
     showgrid="false"
     inkscape:zoom="42.791667"
     inkscape:cx="9.7332035"
     inkscape:cy="9.6514119"
     inkscape:window-width="3440"
     inkscape:window-height="1377"
     inkscape:window-x="-8"
     inkscape:window-y="-8"
     inkscape:window-maximized="1"
     inkscape:current-layer="svg185" />
  <path
     id="path1025"
     d="M 160 -800 C 138.00002 -800 119.18228 -792.15103 103.51562 -776.48438 C 87.848974 -760.81772 80 -741.99998 80 -720 L 80 -280 C 80 -258.00002 87.848974 -239.18228 103.51562 -223.51562 C 119.18228 -207.84897 138.00002 -200 160 -200 L 160 -120 L 200 -120 L 227.03125 -200 L 733.98438 -200 L 760 -120 L 800 -120 L 800 -200 C 821.99998 -200 840.81772 -207.84897 856.48438 -223.51562 C 872.15103 -239.18228 880 -258.00002 880 -280 L 880 -720 C 880 -741.99998 872.15103 -760.81772 856.48438 -776.48438 C 840.81772 -792.15103 821.99998 -800 800 -800 L 160 -800 z M 160 -720 L 800 -720 L 800 -280 L 160 -280 L 160 -720 z " />
</svg>
